<?xml version="1.0" encoding="UTF-8"?>
<svg width="2528px" height="2614px" viewBox="0 0 2528 2614" version="1.1" xmlns="http://www.w3.org/2000/svg" xmlns:xlink="http://www.w3.org/1999/xlink">
    <!-- Generator: Sketch 64 (93537) - https://sketch.com -->
    <title>18</title>
    <desc>Created with Sketch.</desc>
    <g id="Page-1" stroke="none" stroke-width="1" fill="none" fill-rule="evenodd">
        <g id="18" transform="translate(4.000000, 4.000000)">
            <circle id="Oval" stroke="#000000" stroke-width="8" cx="2464.41" cy="843.56" r="5.33102"></circle>
            <path d="M2230.49,181.242 C2197.69,226.675 2155.31,302.823 2152.12,363.321 M2504.42,705.006 C2486.73,706.046 2470.26,705.761 2454.94,704.327 M2152.39,380.935 C2152.99,387.596 2154.19,393.979 2156.08,400.01 M2159.89,409.767 C2163.05,416.417 2167.23,422.514 2172.56,427.935 M2177.86,432.792 C2185.9,439.418 2196.04,444.785 2208.57,448.603 C2320.77,482.79 2403.61,369.344 2431.01,308.348 C2450.27,261.279 2449.63,189.132 2370.74,233.838 C2291.85,278.544 2266.28,425.592 2263.36,493.528 C2263.11,544.749 2285.14,629.517 2360.34,674.826 M2375.78,683.183 C2379.38,684.929 2383.1,686.59 2386.92,688.16 M2395.41,691.433 C2402,693.809 2408.9,695.922 2416.11,697.745 M2424.76,699.761 C2431.88,701.28 2439.3,702.525 2447.01,703.471" id="Shape" stroke="#FECB4B" stroke-width="8" stroke-linecap="round"></path>
            <path d="M526.737,1488.99 C515.589,1504.43 501.188,1530.31 500.104,1550.87 M619.838,1667 C613.827,1667.35 608.229,1667.25 603.02,1666.76 M500.195,1556.85 C500.399,1559.12 500.808,1561.29 501.449,1563.34 M502.743,1566.65 C503.818,1568.91 505.239,1570.99 507.05,1572.83 M508.853,1574.48 C511.585,1576.73 515.029,1578.56 519.289,1579.85 C557.423,1591.47 585.577,1552.92 594.887,1532.19 C601.433,1516.19 601.218,1491.67 574.405,1506.86 C547.592,1522.06 538.902,1572.03 537.909,1595.12 C537.825,1612.53 545.311,1641.34 570.87,1656.74 M576.116,1659.58 C577.342,1660.17 578.604,1660.74 579.902,1661.27 M582.789,1662.38 C585.029,1663.19 587.372,1663.91 589.822,1664.53 M592.764,1665.21 C595.185,1665.73 597.705,1666.15 600.327,1666.47" id="Shape" stroke="#000000" stroke-width="8" stroke-linecap="round"></path>
            <circle id="Oval" stroke="#000000" stroke-width="8" cx="2418.36" cy="1549.06" r="5.33102"></circle>
            <circle id="Oval" stroke="#000000" stroke-width="8" cx="1749.14" cy="1091.77" r="5.33102"></circle>
            <circle id="Oval" stroke="#000000" stroke-width="8" cx="257.549" cy="968.31" r="5.33102"></circle>
            <circle id="Oval" stroke="#000000" stroke-width="8" cx="299.222" cy="2169.19" r="5.33102"></circle>
            <circle id="Oval" stroke="#000000" stroke-width="8" cx="1795.4" cy="110.747" r="5.33102"></circle>
            <circle id="Oval" stroke="#000000" stroke-width="8" cx="784.922" cy="1786.11" r="5.33102"></circle>
            <circle id="Oval" stroke="#000000" stroke-width="8" cx="704.193" cy="282.034" r="5.33102"></circle>
            <line x1="859.51" y1="1346.32" x2="888.86" y2="1367.68" id="Path" stroke="#000000" stroke-width="8" stroke-linecap="round"></line>
            <line x1="1120.67" y1="0.83" x2="1150.03" y2="22.184" id="Path" stroke="#000000" stroke-width="8" stroke-linecap="round"></line>
            <line x1="1693.92" y1="2054.87" x2="1664.14" y2="2075.62" id="Path" stroke="#000000" stroke-width="8" stroke-linecap="round"></line>
            <line x1="2488.63" y1="2453.36" x2="2458.84" y2="2474.11" id="Path" stroke="#000000" stroke-width="8" stroke-linecap="round"></line>
            <line x1="2017.98" y1="1270.04" x2="1988.19" y2="1290.79" id="Path" stroke="#000000" stroke-width="8" stroke-linecap="round"></line>
            <line x1="694.862" y1="2173.35" x2="665.073" y2="2194.1" id="Path" stroke="#000000" stroke-width="8" stroke-linecap="round"></line>
            <line x1="197.51" y1="397.953" x2="167.721" y2="418.703" id="Path" stroke="#000000" stroke-width="8" stroke-linecap="round"></line>
            <line x1="2152.12" y1="568.666" x2="2185.91" y2="555.391" id="Path" stroke="#000000" stroke-width="8" stroke-linecap="round"></line>
            <line x1="2417.82" y1="22.184" x2="2437.57" y2="52.646" id="Path" stroke="#000000" stroke-width="8" stroke-linecap="round"></line>
            <line x1="177.761" y1="1672.72" x2="197.51" y2="1703.18" id="Path" stroke="#000000" stroke-width="8" stroke-linecap="round"></line>
            <path d="M2075.48,1124.93 C2093.67,1087.34 2161.32,1034.72 2286.43,1124.93 C2411.55,1215.13 2493.75,1162.51 2519.21,1124.93" id="Path" stroke="#000000" stroke-width="8" stroke-linecap="round"></path>
            <path d="M2323.33,1314.69 C2330.6,1299.67 2357.63,1278.65 2407.61,1314.69 C2457.6,1350.72 2490.44,1329.7 2500.61,1314.69" id="Path" stroke="#000000" stroke-width="8" stroke-linecap="round"></path>
            <line x1="0.961" y1="2605.43" x2="2519.21" y2="2605.43" id="Path" stroke="#000000" stroke-width="8" stroke-linecap="round"></line>
            <circle id="Oval" fill="#000000" fill-rule="nonzero" cx="1538.55" cy="2550.5" r="51.5506"></circle>
            <circle id="Oval" fill="#000000" fill-rule="nonzero" cx="795.925" cy="2550.5" r="51.5506"></circle>
            <path d="M1494.81,807.936 L1498.61,820.34 M1513.44,868.8 L1498.61,820.34 M1563.87,996.53 L1701.97,1471.93 L2168.08,1586.14 L2076.45,1924.76 L1646.2,1790.64 C1572.72,1765.41 1410.62,1678.83 1350.07,1534.35 C1330.94,1495.04 1287.21,1330.29 1267.73,1252.82 M1498.61,820.34 L1314.4,860.91" id="Shape" stroke="#000000" stroke-width="8" stroke-linecap="round"></path>
            <line x1="1295.65" y1="1360.5" x2="1114.52" y2="2134.69" id="Path" stroke="#000000" stroke-width="8"></line>
            <polyline id="Path" stroke="#000000" stroke-width="8" points="1538.55 1012.23 1620.12 1507.32 2156.86 1622.05"></polyline>
            <polyline id="Path" stroke="#000000" stroke-width="8" stroke-linecap="round" points="1351.99 1541.81 1341.95 2161.3 1003.53 2121.15 1053.63 1133.86"></polyline>
            <path d="M1307.51,192.486 C1348.44,226.915 1343.02,298.923 1335.2,330.623 C1321.72,330.623 1314.73,334.836 1312.93,336.943 C1322.26,307.149 1330.99,265.015 1303.6,268.326 C1244.37,275.067 1213.01,262.912 1206.49,256.091 C1210,242.896 1256.35,149.45 1307.51,192.486 Z" id="Path" fill="#000000" fill-rule="nonzero"></path>
            <path d="M1331.24,266.256 C1324.45,263.397 1192.9,247.195 1127.97,239.451" id="Path" stroke="#000000" stroke-width="8" stroke-linecap="round"></path>
            <path d="M1210.91,255.686 C1200.97,282.069 1188.7,347.838 1219.03,399.842 C1222.31,404.911 1226.07,408.891 1230.11,411.964 C1252.79,429.833 1279.71,419.41 1290.33,411.964 C1297.57,407.121 1305.07,399.396 1310.22,392.317 C1313.73,387.346 1321.73,374.793 1325.63,364.353" id="Path" stroke="#000000" stroke-width="8" stroke-linecap="round"></path>
            <path d="M1312.54,389.516 L1326.61,453.455 M1235.93,418.469 L1241.36,460.69" id="Shape" stroke="#000000" stroke-width="8" stroke-linecap="round"></path>
            <path d="M1270.66,420.833 C1257.49,425.898 1243.06,421.087 1237.48,418.048 L1240.78,440.589 C1280.08,452.745 1302.23,420.074 1307.38,400.826 C1300.71,406.313 1283.83,415.769 1270.66,420.833 Z" id="Path" fill="#000000" fill-rule="nonzero"></path>
            <path d="M1312.91,364.561 C1321.75,366.091 1340.18,363.866 1344.42,349.869 C1349.73,332.373 1336.81,321.858 1322.04,328.024" id="Path" stroke="#000000" stroke-width="8" stroke-linecap="round"></path>
            <path d="M1202.67,294.342 C1209.73,294.342 1227.31,298.077 1232.56,310.782 C1237.8,323.487 1231.66,356.358 1221.58,373.501 C1226.87,371.989 1234.68,371.232 1246.28,356.358" id="Path" stroke="#000000" stroke-width="8" stroke-linecap="round"></path>
            <path d="M1262.29,304.668 C1268.12,299.581 1283.2,292.745 1296.87,306.092" id="Path" stroke="#000000" stroke-width="8" stroke-linecap="round"></path>
            <path d="M1276.65,371.566 C1273.71,378.726 1263.28,391.592 1245.08,385.78" id="Path" stroke="#000000" stroke-width="8" stroke-linecap="round"></path>
            <path d="M1313.86,348.584 C1316.15,344.893 1323.35,337.825 1333.79,339.079" id="Path" stroke="#000000" stroke-width="8" stroke-linecap="round"></path>
            <path d="M1262.9,323.995 C1267.91,317.62 1281.29,308.694 1294.64,323.995" id="Path" stroke="#000000" stroke-width="8" stroke-linecap="round"></path>
            <path d="M1201.07,322.841 C1206.09,316.466 1219.47,307.54 1232.81,322.841" id="Path" stroke="#000000" stroke-width="8" stroke-linecap="round"></path>
            <path d="M1513.47,718.635 L1577.83,825.898 L1370.22,965.34 C1339.47,965.34 1202.49,971.23 1189.45,972.23 C1161.58,972.46 1168.47,996.1 1180.12,1001.64 L1242.75,1025.49 L1114.7,1056.57 C1096.01,1063.48 1105.45,1081.87 1116.59,1081.01 L1152.57,1078.22 C1146.44,1081.43 1133.16,1088.61 1129.02,1091.66 C1124.89,1094.71 1122.74,1098.75 1122.18,1100.38 C1116.83,1116.14 1131.42,1122.69 1141.36,1118.71 C1132.88,1141.58 1155.9,1147.01 1166.23,1140.01 C1158.26,1151.79 1169.35,1158.37 1181.29,1156.66 L1394.27,1109.06 L1619.54,955.81 C1666.82,921.64 1765.15,861.13 1726.81,781.801 C1688.47,702.476 1648.15,634.017 1648.15,634.017" id="Path" stroke="#000000" stroke-width="8" stroke-linecap="round"></path>
            <circle id="Oval" fill="#000000" fill-rule="nonzero" cx="1278.77" cy="323.189" r="6.48549"></circle>
            <circle id="Oval" fill="#000000" fill-rule="nonzero" cx="1216.94" cy="322.032" r="6.48549"></circle>
            <path d="M1323.84,341.473 C1326.66,342.396 1331.07,346.265 1326.2,354.357" id="Path" stroke="#000000" stroke-width="8" stroke-linecap="round"></path>
            <path d="M1137.65,459.665 L1236,447.822 C1242.98,457.205 1263.49,474.977 1286.74,469.81 C1310,464.643 1325.78,444.712 1327.15,436.026 C1344.04,434.433 1379.94,431.195 1417.36,425.923 C1494.27,415.479 1549.89,465.881 1568.09,492.388 L1671.35,645.496 L1526.55,751.128 L1476.7,676.355 L1501.63,816.406 L1310.54,860.32 L1251.18,501.516 L1018.35,543.847 C1061.84,483.044 1116,462.391 1137.65,459.665 Z" id="Path" fill="#FECB4B" fill-rule="nonzero"></path>
            <line x1="1466.74" y1="652.574" x2="1456.44" y2="597.227" id="Path" stroke="#000000" stroke-width="8" stroke-linecap="round"></line>
            <path d="M1162.95,1141.8 L1251.15,1097.36 M1142.67,1118.33 L1235.53,1077.23 M1148.43,1079.38 L1216.22,1062.05" id="Shape" stroke="#000000" stroke-width="8" stroke-linecap="round"></path>
            <polyline id="Path" stroke="#000000" stroke-width="8" points="1330.22 966.3 1250.04 502.605 534.205 628.189 612.454 1181.73 1138.94 1123.77"></polyline>
            <path d="M534.205,629.157 L1168.89,989.49 M1249.07,502.605 L614.386,1180.76" id="Shape" stroke="#000000" stroke-width="8"></path>
            <path d="M1048.04,1233.87 L1054.96,1137.17 L1137.82,1125.84 C1140.72,1141.99 1155.95,1145.22 1163.2,1144.81 C1163.39,1148.01 1171.12,1154.43 1172.59,1155.5 C1173.67,1156.29 1296.14,1130.76 1359.51,1117.47 L1353.51,1129.74 L1048.04,1233.87 Z" id="Path" fill="#000000" fill-rule="nonzero"></path>
            <path d="M820.32,2412.85 L1299.48,2412.85 L1299.48,2200.54 L1143.06,2200.54 L1148.27,2250.43 C1122.75,2253.96 1067.87,2261.76 1052.43,2264.75 C898.6,2286.65 833.59,2372.61 820.32,2412.85 Z" id="Path" fill="#000000" fill-rule="nonzero"></path>
            <path d="M1299.48,2155.22 L1299.48,2200.54 M1136.44,2137.18 L1143.06,2200.54 M1143.06,2200.54 L1148.27,2250.43 C1122.75,2253.96 1067.87,2261.76 1052.43,2264.75 C898.6,2286.65 833.59,2372.61 820.32,2412.85 L1299.48,2412.85 L1299.48,2200.54 M1143.06,2200.54 L1299.48,2200.54" id="Shape" stroke="#000000" stroke-width="8"></path>
            <polygon id="Path" fill="#000000" fill-rule="nonzero" points="1463.23 2300.83 1302.86 2417.19 1302.86 2295.27"></polygon>
            <path d="M2314.59,2186.28 L2404.27,1715.58 L2195.71,1675.85 L2166.44,1829.51 L2216.42,1833.73 C2215.11,1859.45 2212.5,1914.83 2212.54,1930.55 C2205.27,2085.76 2277.55,2165.7 2314.59,2186.28 Z" id="Path" fill="#000000" fill-rule="nonzero"></path>
            <path d="M2147.42,1666.12 L2195.71,1675.85 M2102.95,1824.15 L2166.44,1829.51 M2166.44,1829.51 L2216.42,1833.73 C2215.11,1859.45 2212.5,1914.83 2212.54,1930.55 C2205.27,2085.76 2277.55,2165.7 2314.59,2186.28 L2404.27,1715.58 L2195.71,1675.85 M2166.44,1829.51 L2195.71,1675.85" id="Shape" stroke="#000000" stroke-width="8"></path>
            <path d="M1948.12,2404.23 C1948.12,2410.22 1944.02,2416.93 1934.04,2424.17 C1924.18,2431.33 1909.38,2438.4 1889.94,2445.22 C1851.11,2458.86 1794.7,2471.2 1724.73,2481.6 C1584.84,2502.37 1391.46,2515.24 1177.76,2515.24 C964.06,2515.24 770.672,2502.37 630.788,2481.6 C560.815,2471.2 504.404,2458.86 465.573,2445.22 C446.133,2438.4 431.336,2431.33 421.476,2424.17 C411.5,2416.93 407.395,2410.22 407.395,2404.23 C407.395,2398.24 411.5,2391.53 421.476,2384.29 C431.336,2377.13 446.133,2370.06 465.573,2363.24 C504.404,2349.6 560.815,2337.25 630.788,2326.86 C770.672,2306.09 964.06,2293.22 1177.76,2293.22 C1391.46,2293.22 1584.84,2306.09 1724.73,2326.86 C1794.7,2337.25 1851.11,2349.6 1889.94,2363.24 C1909.38,2370.06 1924.18,2377.13 1934.04,2384.29 C1944.02,2391.53 1948.12,2398.24 1948.12,2404.23 Z" id="Path" stroke="#000000" stroke-width="8"></path>
        </g>
    </g>
</svg>